<?xml version="1.0" standalone="no"?>
<!DOCTYPE svg PUBLIC "-//W3C//DTD SVG 20010904//EN"
 "http://www.w3.org/TR/2001/REC-SVG-20010904/DTD/svg10.dtd">
<svg version="1.0" xmlns="http://www.w3.org/2000/svg"
 width="500.000000pt" height="500.000000pt" viewBox="0 0 500.000000 500.000000"
 preserveAspectRatio="xMidYMid meet">
<metadata>
Created by potrace 1.14, written by Peter Selinger 2001-2017
</metadata>
<g transform="translate(0.000000,500.000000) scale(0.100000,-0.100000)"
fill="#000000" stroke="none">
<path d="M0 2500 l0 -2500 2500 0 2500 0 0 2500 0 2500 -2500 0 -2500 0 0
-2500z m2550 1315 c37 -19 50 -43 50 -91 0 -29 -7 -43 -35 -69 l-35 -33 -2
-284 -3 -283 -25 0 -25 0 -3 283 -2 284 -35 33 c-28 26 -35 40 -35 71 1 81 78
126 150 89z m348 -69 c100 -51 338 -104 545 -122 l77 -6 -19 -32 c-102 -161
-263 -266 -407 -266 -39 0 -44 -3 -44 -22 -1 -37 -35 -102 -69 -131 -27 -23
-99 -52 -108 -44 -8 8 20 77 31 77 17 0 76 66 76 85 0 7 2 20 5 27 4 11 -11
19 -57 32 -86 24 -108 44 -70 65 12 6 41 4 87 -6 81 -17 202 -13 255 9 l35 15
-60 7 c-145 17 -365 96 -365 130 0 7 7 19 15 26 12 10 29 6 87 -18 91 -37 193
-60 323 -72 l100 -9 32 37 32 37 -27 3 c-204 20 -367 60 -501 123 -46 21 -87
37 -91 34 -4 -3 -13 -24 -19 -47 -16 -64 -51 -118 -99 -155 -55 -42 -72 -42
-72 -1 0 24 9 39 39 65 25 21 46 51 56 81 52 146 67 152 213 78z m-626 27 c9
-10 24 -45 34 -78 14 -45 30 -71 66 -107 33 -32 48 -55 48 -72 0 -35 -26 -34
-78 4 -47 34 -86 95 -103 163 -7 28 -16 46 -23 44 -6 -3 -55 -23 -109 -46
-119 -52 -252 -86 -391 -102 -58 -7 -106 -15 -106 -18 1 -3 13 -20 28 -37 l27
-32 105 9 c125 11 252 40 331 75 32 15 65 24 74 21 23 -9 18 -45 -8 -62 -46
-30 -192 -76 -296 -94 -104 -17 -105 -18 -71 -30 59 -21 178 -24 260 -7 65 14
76 14 89 1 22 -22 0 -40 -73 -60 l-64 -17 9 -30 c12 -43 36 -77 64 -90 21 -9
45 -52 45 -79 0 -16 -94 21 -122 48 -18 17 -36 50 -46 85 l-17 58 -41 0 c-97
0 -203 49 -291 133 -57 55 -131 153 -122 161 2 2 54 9 114 16 225 24 390 63
519 124 80 39 126 44 148 19z m104 -519 c14 -49 14 -56 -4 -109 l-20 -57 62
-45 c92 -68 83 -68 164 -7 40 30 72 56 72 58 0 2 -7 20 -15 39 -31 74 -6 176
58 235 l25 24 26 -39 c85 -124 41 -235 -153 -383 l-33 -25 52 -42 c99 -80 130
-140 116 -219 -7 -35 -66 -104 -144 -167 l-33 -27 35 -46 c45 -59 59 -104 54
-171 -5 -62 -29 -101 -76 -123 -23 -11 -32 -23 -34 -45 -2 -25 -8 -30 -28 -30
-20 0 -26 5 -28 30 -2 22 -11 34 -34 45 -50 24 -72 62 -76 133 -3 50 1 71 20
107 26 50 35 55 61 36 17 -13 17 -15 -2 -47 -26 -42 -28 -124 -5 -157 8 -12
19 -22 25 -22 5 0 9 42 9 95 0 52 3 95 7 95 4 0 17 -10 30 -22 20 -19 23 -31
23 -95 0 -40 4 -73 9 -73 21 0 41 46 41 96 0 70 -36 121 -156 218 -181 148
-198 231 -71 354 43 43 45 43 69 28 l25 -16 -53 -53 c-85 -85 -85 -129 3 -213
32 -30 61 -54 65 -54 4 0 8 68 8 151 l0 150 30 -18 30 -17 0 -133 c0 -73 4
-133 9 -133 5 0 36 27 70 59 55 53 61 63 61 100 0 57 -50 109 -208 219 -206
143 -271 237 -238 344 7 26 24 61 37 79 l23 32 38 -43 c23 -26 44 -64 54 -96z
m-526 -1335 c8 0 35 3 60 6 37 6 50 3 73 -15 l27 -21 0 -155 0 -154 -40 0 -40
0 0 145 c0 138 -1 145 -20 145 -19 0 -20 -7 -20 -145 l0 -145 -40 0 -40 0 0
145 c0 138 -1 145 -20 145 -19 0 -20 -7 -20 -145 l0 -145 -40 0 -40 0 0 153
c0 189 7 202 100 191 25 -3 52 -5 60 -5z m1095 -14 c16 -15 25 -36 25 -55 0
-28 -3 -30 -35 -30 -31 0 -35 3 -35 25 0 20 -5 25 -25 25 l-25 0 0 -120 0
-120 25 0 c21 0 25 5 25 30 0 28 3 30 35 30 33 0 35 -2 35 -35 0 -53 -36 -85
-95 -85 -46 0 -83 13 -97 34 -4 6 -8 72 -8 146 0 74 4 140 8 146 14 21 48 33
95 34 38 0 53 -5 72 -25z m341 0 c10 -14 14 -58 14 -172 l0 -153 -40 0 -40 0
0 55 c0 52 -1 55 -25 55 -24 0 -25 -3 -25 -55 l0 -55 -35 0 -35 0 0 153 c0
193 4 199 114 194 43 -3 62 -8 72 -22z m-2046 -15 c0 -28 -2 -30 -40 -30 l-40
0 0 -40 c0 -39 1 -40 35 -40 32 0 35 -2 35 -30 0 -28 -3 -30 -35 -30 -34 0
-35 -1 -35 -40 l0 -40 40 0 c38 0 40 -2 40 -30 l0 -30 -80 0 -80 0 0 170 0
170 80 0 80 0 0 -30z m1060 0 c0 -28 -2 -30 -40 -30 l-40 0 0 -40 0 -40 40 0
c38 0 40 -2 40 -30 0 -28 -2 -30 -40 -30 l-40 0 0 -40 0 -40 40 0 c38 0 40 -2
40 -30 l0 -30 -75 0 -75 0 0 170 0 170 75 0 75 0 0 -30z m312 13 c16 -14 18
-33 18 -151 0 -172 0 -172 -117 -172 l-83 0 0 170 0 170 82 0 c62 0 86 -4 100
-17z m1008 -3 c25 -25 27 -95 4 -128 -8 -12 -10 -22 -5 -22 7 0 11 -32 11 -85
l0 -85 -35 0 -35 0 0 70 c0 63 -2 70 -20 70 -18 0 -20 -7 -20 -70 l0 -70 -40
0 -40 0 0 170 0 170 80 0 c67 0 83 -3 100 -20z m300 -10 c0 -28 -2 -30 -40
-30 l-40 0 0 -40 0 -40 40 0 c38 0 40 -2 40 -30 0 -28 -2 -30 -40 -30 l-40 0
0 -40 0 -40 40 0 c38 0 40 -2 40 -30 l0 -30 -75 0 -75 0 0 170 0 170 75 0 75
0 0 -30z m-2370 -160 l0 -31 -87 3 c-88 3 -88 3 -91 31 l-3 27 90 0 91 0 0
-30z m591 -320 c28 -16 23 -30 -10 -28 -39 4 -40 -15 -1 -25 34 -9 50 -48 30
-72 -16 -19 -74 -19 -90 0 -13 16 -11 17 32 19 39 1 39 18 1 28 -42 11 -54 45
-23 70 26 21 34 22 61 8z m216 -7 c2 -6 -6 -13 -19 -15 -21 -3 -23 -9 -26 -60
-2 -43 -7 -58 -17 -58 -12 0 -15 14 -15 60 0 53 -2 60 -20 60 -11 0 -20 7 -20
15 0 13 11 15 57 13 32 -2 58 -8 60 -15z m191 -11 c36 -48 13 -114 -42 -120
-44 -5 -76 22 -76 66 0 20 4 42 8 48 24 36 85 39 110 6z m171 17 c25 -9 31
-16 31 -39 0 -16 -4 -32 -10 -35 -6 -4 -4 -17 5 -36 15 -27 14 -29 -3 -29 -10
0 -24 11 -30 25 -6 14 -16 25 -22 25 -5 0 -10 -11 -10 -25 0 -18 -5 -25 -20
-25 -18 0 -20 7 -20 68 0 38 3 72 7 75 9 10 36 9 72 -4z m219 -6 c2 -9 -8 -13
-32 -13 -25 0 -36 -4 -36 -15 0 -9 9 -15 25 -15 16 0 25 -6 25 -15 0 -9 -9
-15 -25 -15 -16 0 -25 -6 -25 -15 0 -10 11 -15 35 -15 24 0 35 -5 35 -15 0
-11 -12 -15 -50 -15 l-50 0 0 76 0 75 47 -3 c26 -2 48 -9 51 -15z"/>
<path d="M2468 3769 c-21 -12 -24 -59 -6 -77 7 -7 24 -12 38 -12 33 0 50 17
50 50 0 45 -40 64 -82 39z"/>
<path d="M2288 3294 c-22 -37 -9 -132 20 -142 8 -3 12 11 12 50 -1 51 -21 110
-32 92z"/>
<path d="M2690 3264 c-12 -31 -13 -94 -2 -112 15 -23 46 61 38 102 -8 42 -23
46 -36 10z"/>
<path d="M3170 1810 c0 -57 1 -60 25 -60 24 0 25 3 25 60 0 57 -1 60 -25 60
-24 0 -25 -3 -25 -60z"/>
<path d="M2510 1749 c0 -119 0 -120 23 -117 21 3 22 7 25 121 l3 117 -26 0
-25 0 0 -121z"/>
<path d="M3520 1820 c0 -43 3 -50 20 -50 17 0 20 7 20 50 0 43 -3 50 -20 50
-17 0 -20 -7 -20 -50z"/>
<path d="M2471 1376 c-7 -8 -11 -27 -9 -43 3 -24 8 -28 33 -28 25 0 30 4 33
28 4 30 -12 57 -33 57 -7 0 -18 -6 -24 -14z"/>
<path d="M2680 1370 c0 -11 6 -20 14 -20 21 0 31 21 15 31 -22 14 -29 11 -29
-11z"/>
</g>
</svg>
